<svg width="2000" height="289" viewBox="0 0 2000 289" fill="none" xmlns="http://www.w3.org/2000/svg">
<path d="M32.3864 140.809C14.0813 140.809 0.000496055 154.889 0.000497656 173.195L2.52251e-05 288.542L143.625 288.542L143.625 173.194C143.625 149.957 152.774 140.809 176.011 140.809L288.542 140.808L288.542 -2.52251e-05L176.011 5.57691e-05C157.706 5.73694e-05 143.625 14.0809 143.625 32.386L143.625 108.423C143.625 131.66 134.477 140.809 111.239 140.809L32.3864 140.809Z" fill="#0B6EF9"/>
<path d="M620.122 288.542C600.725 288.542 585.772 285.039 575.265 278.035C565.027 271.03 557.349 263.217 552.23 254.596H545.764V282.884H504.948V0H546.573V110.729H553.039C556.272 105.341 560.582 100.222 565.97 95.3724C571.359 90.2535 578.498 86.0776 587.389 82.8446C596.279 79.6117 607.191 77.9952 620.122 77.9952C636.826 77.9952 652.183 82.0364 666.192 90.1188C680.202 98.2012 691.382 109.921 699.734 125.277C708.086 140.634 712.262 158.954 712.262 180.238V186.299C712.262 207.852 707.951 226.307 699.33 241.664C690.978 256.751 679.798 268.336 665.788 276.418C652.048 284.501 636.826 288.542 620.122 288.542ZM607.999 252.171C626.05 252.171 640.867 246.379 652.452 234.794C664.306 223.209 670.233 206.64 670.233 185.087V181.45C670.233 160.166 664.441 143.732 652.856 132.147C641.271 120.563 626.319 114.77 607.999 114.77C590.218 114.77 575.4 120.563 563.546 132.147C551.961 143.732 546.168 160.166 546.168 181.45V185.087C546.168 206.64 551.961 223.209 563.546 234.794C575.4 246.379 590.218 252.171 607.999 252.171Z" fill="#0B6EF9"/>
<path d="M824.052 286.521C808.964 286.521 795.494 283.154 783.64 276.418C771.785 269.683 762.491 260.119 755.755 247.726C749.02 235.333 745.652 220.515 745.652 203.272V83.6529H787.277V200.444C787.277 217.686 791.587 230.483 800.209 238.835C808.83 246.917 820.819 250.959 836.175 250.959C853.148 250.959 866.754 245.301 876.991 233.986C887.498 222.401 892.752 205.832 892.752 184.279V83.6529H934.376V282.884H893.56V252.979H887.094C883.323 261.062 876.587 268.74 866.888 276.014C857.189 283.019 842.911 286.521 824.052 286.521Z" fill="#0B6EF9"/>
<path d="M979.742 282.884V83.6529H1021.37V282.884H979.742ZM1000.76 56.5768C992.674 56.5768 985.804 54.0174 980.146 48.8985C974.758 43.5103 972.064 36.6402 972.064 28.2884C972.064 19.9366 974.758 13.2013 980.146 8.08242C985.804 2.69414 992.674 0 1000.76 0C1009.11 0 1015.98 2.69414 1021.37 8.08242C1026.75 13.2013 1029.45 19.9366 1029.45 28.2884C1029.45 36.6402 1026.75 43.5103 1021.37 48.8985C1015.98 54.0174 1009.11 56.5768 1000.76 56.5768Z" fill="#0B6EF9"/>
<path d="M1066.98 282.884V0H1108.6V282.884H1066.98Z" fill="#0B6EF9"/>
<path d="M1236.65 288.542C1220.21 288.542 1204.99 284.501 1190.98 276.418C1176.97 268.336 1165.66 256.751 1157.04 241.664C1148.69 226.307 1144.51 207.852 1144.51 186.299V180.238C1144.51 158.954 1148.69 140.634 1157.04 125.277C1165.39 109.921 1176.57 98.2012 1190.58 90.1188C1204.59 82.0364 1219.95 77.9952 1236.65 77.9952C1249.58 77.9952 1260.36 79.6117 1268.98 82.8446C1277.87 86.0776 1285.14 90.2535 1290.8 95.3724C1296.46 100.222 1300.77 105.341 1303.73 110.729H1310.2V0H1351.82V282.884H1311.01V254.596H1304.54C1299.42 263.217 1291.61 271.03 1281.1 278.035C1270.86 285.039 1256.05 288.542 1236.65 288.542ZM1248.37 252.171C1266.42 252.171 1281.24 246.379 1292.82 234.794C1304.68 223.209 1310.6 206.64 1310.6 185.087V181.45C1310.6 160.166 1304.81 143.732 1293.23 132.147C1281.64 120.563 1266.69 114.77 1248.37 114.77C1230.59 114.77 1215.77 120.563 1203.92 132.147C1192.33 143.732 1186.54 160.166 1186.54 181.45V185.087C1186.54 206.64 1192.33 223.209 1203.92 234.794C1215.77 246.379 1230.59 252.171 1248.37 252.171Z" fill="#0B6EF9"/>
<path d="M1488.26 288.542C1468.06 288.542 1450.41 284.366 1435.32 276.014C1420.24 267.393 1408.38 255.404 1399.76 240.047C1391.41 224.421 1387.23 206.371 1387.23 185.895V181.046C1387.23 160.301 1391.41 142.25 1399.76 126.894C1408.11 111.268 1419.7 99.2789 1434.52 90.927C1449.6 82.3058 1466.98 77.9952 1486.65 77.9952C1505.78 77.9952 1522.48 82.3058 1536.76 90.927C1551.31 99.2789 1562.62 110.998 1570.7 126.086C1578.79 141.173 1582.83 158.819 1582.83 179.025V194.786H1429.67C1430.21 212.298 1436 226.307 1447.04 236.814C1458.36 247.052 1472.37 252.171 1489.07 252.171C1504.7 252.171 1516.42 248.669 1524.23 241.664C1532.31 234.659 1538.51 226.577 1542.82 217.417L1577.17 235.198C1573.4 242.742 1567.88 250.689 1560.6 259.041C1553.6 267.393 1544.3 274.398 1532.72 280.055C1521.13 285.713 1506.31 288.542 1488.26 288.542ZM1430.07 162.86H1540.4C1539.32 147.773 1533.93 136.054 1524.23 127.702C1514.53 119.081 1501.87 114.77 1486.24 114.77C1470.62 114.77 1457.82 119.081 1447.85 127.702C1438.15 136.054 1432.23 147.773 1430.07 162.86Z" fill="#0B6EF9"/>
<path d="M1616.77 282.884V83.6529H1657.58V107.092H1664.05C1667.28 98.74 1672.4 92.6782 1679.41 88.9064C1686.68 84.8652 1695.57 82.8446 1706.08 82.8446H1729.92V120.428H1704.46C1690.99 120.428 1679.95 124.2 1671.32 131.743C1662.7 139.017 1658.39 150.333 1658.39 165.689V282.884H1616.77Z" fill="#0B6EF9"/>
<path d="M1752.74 288.542C1743.31 288.542 1735.36 285.444 1728.89 279.247C1722.7 273.051 1719.6 265.103 1719.6 255.404C1719.6 245.705 1722.7 237.892 1728.89 231.965C1735.36 225.768 1743.31 222.67 1752.74 222.67C1762.16 222.67 1769.98 225.768 1776.17 231.965C1782.64 238.162 1785.87 245.974 1785.87 255.404C1785.87 265.103 1782.64 273.051 1776.17 279.247C1769.98 285.444 1762.16 288.542 1752.74 288.542Z" fill="#0B6EF9"/>
<path d="M1835.49 282.884V118.811H1779.72V83.6529H1835.49V40.0079C1835.49 27.8843 1839.13 18.1854 1846.4 10.9112C1853.67 3.63708 1863.37 0 1875.5 0H1926.82V35.1585H1888.83C1881.02 35.1585 1877.11 39.1997 1877.11 47.2821V83.6529H1934.5V118.811H1877.11V282.884H1835.49Z" fill="#0B6EF9"/>
<path d="M1950.29 282.884V83.6529H1991.92V282.884H1950.29ZM1971.31 56.5768C1963.23 56.5768 1956.36 54.0174 1950.7 48.8985C1945.31 43.5103 1942.62 36.6402 1942.62 28.2884C1942.62 19.9366 1945.31 13.2013 1950.7 8.08242C1956.36 2.69414 1963.23 0 1971.31 0C1979.66 0 1986.53 2.69414 1991.92 8.08242C1997.31 13.2013 2000 19.9366 2000 28.2884C2000 36.6402 1997.31 43.5103 1991.92 48.8985C1986.53 54.0174 1979.66 56.5768 1971.31 56.5768Z" fill="#0B6EF9"/>
</svg>
